<svg viewBox="-.9 -.9 1.8 1.8" xmlns="http://www.w3.org/2000/svg"><g stroke="#000" stroke-linejoin="round"><path d="m-.52222222-.52222222h1.04444444v1.04444444h-1.04444444z" stroke-width=".1"/><g stroke-opacity=".5" stroke-width="0"><path d="m-.52777778-.52777778h.31481482v.31481482h-.31481482z" fill="#fefe00"/><path d="m-.15740741-.52777778h.31481482v.31481482h-.31481482z" fill="#fefe00"/><path d="m.21296296-.52777778h.31481482v.31481482h-.31481482z" fill="#0000f2"/><g fill="#fefe00"><path d="m-.52777778-.15740741h.31481482v.31481482h-.31481482z"/><path d="m-.15740741-.15740741h.31481482v.31481482h-.31481482z"/><path d="m.21296296-.15740741h.31481482v.31481482h-.31481482z"/></g><path d="m-.52777778.21296296h.31481482v.31481482h-.31481482z" fill="#0000f2"/><path d="m-.15740741.21296296h.31481482v.31481482h-.31481482z" fill="#fefe00"/><path d="m.21296296.21296296h.31481482v.31481482h-.31481482z" fill="#fefe00"/></g><g stroke-width=".02"><path d="m-.5440613.55440613h.34814815l.0120051.16398467h-.32413793z" fill="#fefe00"/><path d="m-.17445722.55440613h.34814815l-.01200511.16398467h-.32413793z" fill="#0000f2"/><path d="m.19514687.55440613h.34814815l-.03601533.16398467h-.32413793z" fill="#e00"/><path d="m-.55440613-.5440613v.34814815l-.16398467.0120051v-.32413793z" fill="#ffa100"/><path d="m-.55440613-.17445722v.34814815l-.16398467-.01200511v-.32413793z" fill="#ffa100"/><path d="m-.55440613.19514687v.34814815l-.16398467-.03601533v-.32413793z" fill="#e00"/><path d="m.5440613-.55440613h-.34814815l-.0120051-.16398467h.32413793z" fill="#ffa100"/><g fill="#00d800"><path d="m.17445722-.55440613h-.34814815l.01200511-.16398467h.32413793z"/><path d="m-.19514687-.55440613h-.34814815l.03601533-.16398467h.32413793z"/><path d="m.55440613.5440613v-.34814815l.16398467-.0120051v.32413793z"/></g><path d="m.55440613.17445722v-.34814815l.16398467.01200511v.32413793z" fill="#e00"/><path d="m.55440613-.19514687v-.34814815l.16398467.03601533v.32413793z" fill="#fefe00"/></g></g></svg>